<svg width="40" height="40" viewBox="0 0 40 40" fill="none" xmlns="http://www.w3.org/2000/svg">
  <!-- Background: Flutter Dark Blue -->
  <rect width="40" height="40" rx="8" fill="#02569B"/>

  <!-- Left Brace { -->
  <path d="M13 11C11 11 10 13 10 15V18C10 19 9 20 8 20C9 20 10 21 10 22V25C10 27 11 29 13 29"
        stroke="white" stroke-width="3" stroke-linecap="round" stroke-linejoin="round"/>

  <!-- Right Brace } -->
  <path d="M27 11C29 11 30 13 30 15V18C30 19 31 20 32 20C31 20 30 21 30 22V25C30 27 29 29 27 29"
        stroke="white" stroke-width="3" stroke-linecap="round" stroke-linejoin="round"/>

  <!-- Quote Marks " -->
  <!-- Left Quote -->
  <path d="M17 16V19" stroke="#44D1FD" stroke-width="3" stroke-linecap="round"/>
  <circle cx="17" cy="22" r="1.5" fill="#44D1FD"/>

  <!-- Right Quote -->
  <path d="M23 16V19" stroke="#44D1FD" stroke-width="3" stroke-linecap="round"/>
  <circle cx="23" cy="22" r="1.5" fill="#44D1FD"/>
</svg>